<?xml version="1.0" encoding="utf-8"?>
<!-- Generator: Adobe Illustrator 26.3.1, SVG Export Plug-In . SVG Version: 6.00 Build 0)  -->
<svg version="1.1" id="Layer_1" xmlns="http://www.w3.org/2000/svg" xmlns:xlink="http://www.w3.org/1999/xlink" x="0px" y="0px"
	 viewBox="0 0 493.7 493.7" style="enable-background:new 0 0 493.7 493.7;" xml:space="preserve">
<style type="text/css">
	.st0{fill:#FF7F2A;}
	.st1{fill:#00FFFF;}
</style>
<g>
	<path class="st0" d="M46.8,216.6h155c5,0,8,3,8,8v24c0,5-3,8-8,8h-155l1,164c0,5-3,8-8,8H8.3c-5,0-8-3-8-8l2-347.5c0-5,3-8,8-8h217
		c5,0,8,3,8,8v24c0,5-3,8-8,8H45.8L46.8,216.6z"/>
	<path class="st1" d="M201.1,65.1h42.1c4,0,7,1.5,9.5,5l95.5,139.5l95.5-139.5c2.5-3.5,5.5-5,9.5-5h28.5c6.5,0,8.5,4.5,5,9.5
		l-115,169l120,175.5c3.5,5,1.5,9.5-5.5,9.5h-35.5c-4,0-7-1.5-9.5-5l-99-148.5l-99,148.5c-2.5,3.5-5.5,5-9.5,5h-34
		c-7,0-9-4.5-5.5-9.5l124-179"/>
</g>
</svg>
