<svg xmlns="http://www.w3.org/2000/svg" viewBox="0 0 493.16 363.5">
	<path fill="#ff7f2a" d="M46.5 151.5h155c5 0 8 3 8 8v24c0 5-3 8-8 8h-155l1 164c0 5-3 8-8 8H8c-5 0-8-3-8-8L2 8c0-5 3-8 8-8h217c5 0 8 3 8 8v24c0 5-3 8-8 8H45.5l1 111.5Z" />
	<path fill="#0ff" d="M200.87 0h42.1c4 0 7 1.5 9.5 5l95.5 139.5L443.47 5c2.5-3.5 5.5-5 9.5-5h28.5c6.5 0 8.5 4.5 5 9.5l-115 169 120 175.5c3.5 5 1.5 9.5-5.5 9.5h-35.5c-4 0-7-1.5-9.5-5l-99-148.5-99 148.5c-2.5 3.5-5.5 5-9.5 5h-34c-7 0-9-4.5-5.5-9.5l124-179" />
</svg>